<?xml version="1.0" encoding="UTF-8"?>
<svg xmlns="http://www.w3.org/2000/svg" viewBox="0 0 1280 640" width="1280" height="640">
  <rect width="1280" height="640" fill="#F5F1E8"/>
  <svg x="510" y="72" width="260" height="260" viewBox="0 0 128 128" fill="none">
    <defs>
      <linearGradient id="social-lens" x1="64" y1="22" x2="64" y2="109" gradientUnits="userSpaceOnUse">
        <stop stop-color="#60aaf3"/>
        <stop offset="1" stop-color="#2c5dbd"/>
      </linearGradient>
      <linearGradient id="social-bead" x1="0" y1="36" x2="0" y2="76" gradientUnits="userSpaceOnUse">
        <stop stop-color="#ffffff" stop-opacity="0.95"/>
        <stop offset="1" stop-color="#ffffff" stop-opacity="0.72"/>
      </linearGradient>
      <radialGradient id="social-glow" cx="0" cy="0" r="1" gradientTransform="translate(41 31) rotate(47) scale(90)">
        <stop stop-color="#ffffff" stop-opacity="0.55"/>
        <stop offset="0.45" stop-color="#ffffff" stop-opacity="0"/>
      </radialGradient>
    </defs>
    <path d="M64 22 C89 21 108 35 116 52 C124 68 121 84 110 96 C100 106 84 109 64 109 C42 109 25 106 15 96 C6 86 5 72 12 59 C20 39 39 24 60 22 C61 22 63 22 64 22 Z" fill="url(#social-lens)"/>
    <path d="M64 22 C89 21 108 35 116 52 C124 68 121 84 110 96 C100 106 84 109 64 109 C42 109 25 106 15 96 C6 86 5 72 12 59 C20 39 39 24 60 22 C61 22 63 22 64 22 Z" fill="url(#social-glow)"/>
    <g transform="translate(16 21) scale(0.75)" fill="url(#social-bead)">
      <path d="M57 36 C59 36 59 39 57 40 C50 41 45 45 42 50 C44 49 47 48 50 48 C57 48 61 54 61 62 C61 70 56 76 49 76 C41 76 36 70 36 62 C36 50 44 40 57 36 Z"/>
      <path d="M87 36 C89 36 89 39 87 40 C80 41 75 45 72 50 C74 49 77 48 80 48 C87 48 91 54 91 62 C91 70 86 76 79 76 C71 76 66 70 66 62 C66 50 74 40 87 36 Z"/>
    </g>
    <path d="M64 22 C89 21 108 35 116 52 C124 68 121 84 110 96 C100 106 84 109 64 109 C42 109 25 106 15 96 C6 86 5 72 12 59 C20 39 39 24 60 22 C61 22 63 22 64 22 Z" stroke="#ffffff" stroke-opacity="0.5" stroke-width="1.6"/>
  </svg>
  <text x="640" y="410"
        font-family="'Charter', 'Iowan Old Style', 'Georgia', serif"
        font-size="56" font-weight="500" fill="#1B1B1B" text-anchor="middle">Yulu</text>
  <text x="640" y="478"
        font-family="'Charter', 'Iowan Old Style', 'Georgia', serif"
        font-size="26" font-style="italic" fill="#5A5A52" text-anchor="middle">Listen quietly. Capture everything.</text>
  <text x="640" y="560"
        font-family="'Songti SC', 'STSong', serif"
        font-size="20" fill="#888880" text-anchor="middle">Yulu · macOS native meeting recorder · whisper.cpp · BYOA</text>
</svg>
